# xmcd
#
# Track frame offsets: 
#        150
#        12074
#        23320
#        34792
#        44004
#        57080
#        68571
#        80218
#        92406
#        103112
#
# Disc length: 1499 seconds
#
# Revision: 0
# Processed by: cddbd v1.5.2PL0 Copyright (c) Steve Scherf et al.
# Submitted via: ExactAudioCopy v1.3
#
DISCID=7005d90a
DTITLE=Lester Flatt and Earl Scruggs - Columbia Historic Edition
DYEAR=1982
DGENRE=Bluegrass
TTITLE0=Before I Met You
TTITLE1=Cabin On The Hill
TTITLE2=Dear Old Dixie
TTITLE3=Foggy Mountain Special
TTITLE4=I'll Go Stepping Too
TTITLE5=No Doubt About It
TTITLE6=Till The End Of The World Rolls 'Round
TTITLE7=What's Good About It
TTITLE8=Who Knows Right From Wrong
TTITLE9=You Put Me On My Feet
EXTD=
EXTT0=
EXTT1=
EXTT2=
EXTT3=
EXTT4=
EXTT5=
EXTT6=
EXTT7=
EXTT8=
EXTT9=
PLAYORDER=
